<svg width="20" height="20" viewBox="0 0 20 20" fill="none" xmlns="http://www.w3.org/2000/svg">
<path d="M8.08335 18.3333L7.66669 15.7083C7.4028 15.6111 7.12502 15.4792 6.83335 15.3125C6.54169 15.1458 6.28474 14.9722 6.06252 14.7917L3.60419 15.9167L1.66669 12.5L3.91669 10.8542C3.88891 10.7292 3.87155 10.5868 3.8646 10.4271C3.85766 10.2674 3.85419 10.125 3.85419 9.99999C3.85419 9.87499 3.85766 9.73263 3.8646 9.57291C3.87155 9.41318 3.88891 9.27082 3.91669 9.14582L1.66669 7.49999L3.60419 4.08332L6.06252 5.20832C6.28474 5.02777 6.54169 4.85416 6.83335 4.68749C7.12502 4.52082 7.4028 4.39582 7.66669 4.31249L8.08335 1.66666H11.9167L12.3334 4.29166C12.5972 4.38888 12.8785 4.51735 13.1771 4.67707C13.4757 4.8368 13.7292 5.01388 13.9375 5.20832L16.3959 4.08332L18.3334 7.49999L16.0834 9.10416C16.1111 9.24304 16.1285 9.39235 16.1354 9.55207C16.1424 9.71179 16.1459 9.8611 16.1459 9.99999C16.1459 10.1389 16.1424 10.2847 16.1354 10.4375C16.1285 10.5903 16.1111 10.7361 16.0834 10.875L18.3334 12.5L16.3959 15.9167L13.9375 14.7917C13.7153 14.9722 13.4618 15.1493 13.1771 15.3229C12.8924 15.4965 12.6111 15.625 12.3334 15.7083L11.9167 18.3333H8.08335ZM10 12.7083C10.75 12.7083 11.3889 12.4444 11.9167 11.9167C12.4445 11.3889 12.7084 10.75 12.7084 9.99999C12.7084 9.24999 12.4445 8.6111 11.9167 8.08332C11.3889 7.55555 10.75 7.29166 10 7.29166C9.25002 7.29166 8.61113 7.55555 8.08335 8.08332C7.55558 8.6111 7.29169 9.24999 7.29169 9.99999C7.29169 10.75 7.55558 11.3889 8.08335 11.9167C8.61113 12.4444 9.25002 12.7083 10 12.7083ZM10 11.4583C9.59724 11.4583 9.25349 11.316 8.96877 11.0312C8.68405 10.7465 8.54169 10.4028 8.54169 9.99999C8.54169 9.59721 8.68405 9.25346 8.96877 8.96874C9.25349 8.68402 9.59724 8.54166 10 8.54166C10.4028 8.54166 10.7465 8.68402 11.0313 8.96874C11.316 9.25346 11.4584 9.59721 11.4584 9.99999C11.4584 10.4028 11.316 10.7465 11.0313 11.0312C10.7465 11.316 10.4028 11.4583 10 11.4583ZM9.08335 17.0833H10.9167L11.2084 14.75C11.6667 14.6389 12.1007 14.4653 12.5104 14.2292C12.9202 13.993 13.2917 13.7083 13.625 13.375L15.8334 14.3333L16.6667 12.8333L14.7084 11.3958C14.7639 11.1597 14.809 10.9271 14.8438 10.6979C14.8785 10.4687 14.8959 10.2361 14.8959 9.99999C14.8959 9.76388 14.882 9.53124 14.8542 9.30207C14.8264 9.07291 14.7778 8.84027 14.7084 8.60416L16.6667 7.16666L15.8334 5.66666L13.625 6.62499C13.3056 6.26388 12.9445 5.9618 12.5417 5.71874C12.1389 5.47568 11.6945 5.31943 11.2084 5.24999L10.9167 2.91666H9.08335L8.79169 5.24999C8.31946 5.34721 7.87849 5.51388 7.46877 5.74999C7.05905 5.9861 6.69446 6.27777 6.37502 6.62499L4.16669 5.66666L3.33335 7.16666L5.29169 8.60416C5.23613 8.84027 5.19099 9.07291 5.15627 9.30207C5.12155 9.53124 5.10419 9.76388 5.10419 9.99999C5.10419 10.2361 5.12155 10.4687 5.15627 10.6979C5.19099 10.9271 5.23613 11.1597 5.29169 11.3958L3.33335 12.8333L4.16669 14.3333L6.37502 13.375C6.70835 13.7083 7.07988 13.993 7.4896 14.2292C7.89933 14.4653 8.33335 14.6389 8.79169 14.75L9.08335 17.0833Z" fill="#F5F5F5"/>
</svg>
