<svg width="180" height="21" viewBox="0 0 180 21" fill="none" xmlns="http://www.w3.org/2000/svg">
<g clip-path="url(#clip0_1_150)">
<path d="M164.399 8.81757V20.652H180V17.4613H168.061V12.0082H178.511V8.81757H168.061H164.399ZM146.311 5.65596C146.311 4.97916 146.609 4.40386 147.204 3.93009C147.8 3.45632 148.633 3.21946 149.705 3.21946C150.658 3.21946 151.6 3.39831 152.533 3.75609C153.466 4.11383 154.409 4.63107 155.362 5.30787L157.327 2.61033C156.255 1.77882 155.109 1.14555 153.888 0.710459C152.667 0.275369 151.293 0.0578013 149.765 0.0578013C148.732 0.0578013 147.78 0.198016 146.906 0.478399C146.033 0.758826 145.284 1.16008 144.658 1.68218C144.033 2.20427 143.542 2.82789 143.185 3.55301C142.827 4.27818 142.649 5.0855 142.649 5.97502C142.649 6.92251 142.803 7.72502 143.11 8.38252C143.418 9.03994 143.864 9.60071 144.45 10.0648C145.036 10.5289 145.76 10.9157 146.623 11.2251C147.487 11.5344 148.474 11.8148 149.586 12.0662C150.559 12.2982 151.347 12.5206 151.953 12.7334C152.558 12.9461 153.035 13.1733 153.382 13.415C153.729 13.6567 153.967 13.9226 154.096 14.2127C154.225 14.5027 154.29 14.8314 154.29 15.1988C154.29 15.9917 153.957 16.6202 153.293 17.0842C152.628 17.5483 151.73 17.7803 150.598 17.7803C149.288 17.7803 148.117 17.5532 147.085 17.0987C146.053 16.6443 145.03 15.9917 144.018 15.1408L141.815 17.6933C143.066 18.7956 144.425 19.6126 145.894 20.1444C147.363 20.6761 148.901 20.942 150.509 20.942C151.6 20.942 152.603 20.8066 153.516 20.5359C154.429 20.2652 155.213 19.8688 155.868 19.3467C156.523 18.8245 157.034 18.1864 157.401 17.4323C157.768 16.6781 157.952 15.8176 157.952 14.8508C157.952 13.9999 157.808 13.2603 157.52 12.6318C157.232 12.0034 156.811 11.4523 156.255 10.9785C155.699 10.5048 155 10.1035 154.156 9.77475C153.312 9.44604 152.345 9.14632 151.253 8.87559C150.261 8.64357 149.442 8.42116 148.797 8.20848C148.152 7.99576 147.646 7.7637 147.278 7.5123C146.911 7.2609 146.658 6.99021 146.519 6.70018C146.38 6.41011 146.311 6.06202 146.311 5.65596ZM131.855 0.347877V20.652H135.517V0.347877H131.855ZM103.614 15.4019L98.6423 0.347877H94.6822L101.947 20.797H105.103L110.224 6.20708L115.345 20.797H118.5L125.765 0.347877H121.925L116.952 15.4019L111.831 0.289906H108.735L103.614 15.4019ZM179.851 0.347877H164.399V3.53852H179.851V0.347877Z" fill="#1161D6"/>
<path d="M53.4447 5.65595C53.4447 4.97916 53.7423 4.40385 54.3378 3.93009C54.9332 3.45632 55.7667 3.21946 56.8387 3.21946C57.7912 3.21946 58.7344 3.39831 59.6669 3.75609C60.5999 4.11382 61.5427 4.63107 62.4956 5.30787L64.4606 2.61033C63.3886 1.77882 62.2425 1.14555 61.0218 0.710458C59.8011 0.275368 58.4267 0.0577997 56.8982 0.0577997C55.8662 0.0577997 54.9133 0.198014 54.0402 0.478398C53.1668 0.758824 52.4176 1.16008 51.7924 1.68217C51.1671 2.20426 50.6756 2.82789 50.3185 3.55301C49.9611 4.27818 49.7826 5.0855 49.7826 5.97501C49.7826 6.9225 49.9362 7.72502 50.2439 8.38252C50.5517 9.03994 50.9984 9.60071 51.5837 10.0648C52.1694 10.5289 52.8937 10.9157 53.7574 11.2251C54.6206 11.5344 55.6082 11.8148 56.7197 12.0662C57.6922 12.2982 58.4813 12.5206 59.0866 12.7334C59.6918 12.9461 60.1683 13.1733 60.5156 13.415C60.8628 13.6567 61.1013 13.9226 61.23 14.2126C61.3593 14.5027 61.4237 14.8314 61.4237 15.1988C61.4237 15.9917 61.0911 16.6202 60.4263 17.0842C59.7615 17.5483 58.8632 17.7803 57.7317 17.7803C56.4217 17.7803 55.2507 17.5532 54.2187 17.0987C53.1867 16.6443 52.1645 15.9917 51.152 15.1408L48.949 17.6933C50.1995 18.7956 51.5588 19.6126 53.0278 20.1444C54.4967 20.6761 56.035 20.942 57.6425 20.942C58.7344 20.942 59.7367 20.8066 60.6497 20.5359C61.5627 20.2652 62.3469 19.8688 63.0019 19.3467C63.6569 18.8245 64.168 18.1864 64.5348 17.4323C64.902 16.6781 65.0858 15.8176 65.0858 14.8508C65.0858 13.9999 64.942 13.2603 64.6542 12.6318C64.366 12.0034 63.9446 11.4522 63.3886 10.9785C62.8331 10.5048 62.1333 10.1035 61.2896 9.77475C60.4463 9.44604 59.4787 9.14632 58.3867 8.87558C57.3942 8.64357 56.5758 8.42116 55.9306 8.20848C55.2854 7.99576 54.7796 7.7637 54.4124 7.5123C54.0451 7.2609 53.792 6.99021 53.653 6.70018C53.514 6.4101 53.4447 6.06202 53.4447 5.65595ZM41.1025 20.652H44.9729L35.803 0.20286H32.4089L23.2389 20.652H26.9902C30.5726 12.46 30.2577 13.0791 34.0464 4.46671C37.8243 12.9839 37.5969 12.5226 41.1025 20.652ZM19.0545 17.4033L16.7025 15.0829C15.8093 15.895 14.9062 16.5379 13.9932 17.0117C13.0801 17.4855 11.9885 17.7224 10.7182 17.7224C9.72578 17.7224 8.80776 17.5338 7.96418 17.1567C7.12064 16.7797 6.39122 16.2624 5.77588 15.6049C5.16059 14.9475 4.68424 14.1788 4.3468 13.2989C4.00939 12.4191 3.84068 11.4764 3.84068 10.4709C3.84068 9.46538 4.00939 8.52754 4.3468 7.65736C4.68424 6.78718 5.16059 6.02818 5.77588 5.38037C6.39122 4.73256 7.12064 4.22012 7.96418 3.84304C8.80776 3.46601 9.72578 3.27747 10.7182 3.27747C11.9091 3.27747 12.971 3.50949 13.9039 3.97361C14.8367 4.43768 15.72 5.04686 16.5536 5.80097L18.9057 3.16145C18.4095 2.69737 17.8835 2.27193 17.3277 1.8852C16.7719 1.49848 16.1666 1.16489 15.5116 0.884502C14.8566 0.604119 14.1371 0.386553 13.3531 0.231846C12.569 0.07714 11.7007 -0.000171479 10.7479 -0.000171479C9.16004 -0.000171479 7.71115 0.275367 6.40112 0.826487C5.09114 1.37756 3.95976 2.13176 3.00705 3.08894C2.05431 4.04612 1.31498 5.16285 0.788958 6.43913C0.262986 7.71533 0 9.07861 0 10.5289C0 11.9986 0.267929 13.3715 0.803874 14.6477C1.33979 15.924 2.07912 17.0311 3.02194 17.9689C3.96472 18.9067 5.08119 19.6464 6.37137 20.1878C7.66151 20.7293 9.07074 21 10.5991 21C11.5717 21 12.4599 20.9179 13.2637 20.7534C14.0676 20.5891 14.807 20.3474 15.4818 20.0283C16.1566 19.7092 16.7869 19.3321 17.3724 18.8971C17.9579 18.462 18.5186 17.9641 19.0545 17.4033ZM85.1388 12.0953V20.652H88.801V0.347875H85.1388V8.78854H75.1949V0.347875H71.5328V20.652H75.1949V12.0953H85.1388Z" fill="white"/>
<path fill-rule="evenodd" clip-rule="evenodd" d="M34.0924 13.2727L30.8463 20.6519H37.3656L34.0924 13.2727Z" fill="#1161D6"/>
</g>
<defs>
<clipPath id="clip0_1_150">
<rect width="180" height="21" fill="white"/>
</clipPath>
</defs>
</svg>
