<svg width="34" height="34" viewBox="0 0 34 34" fill="none" xmlns="http://www.w3.org/2000/svg">
<circle cx="17" cy="17" r="17" fill="white"/>
<g clip-path="url(#clip0_1_132)">
<path opacity="0.3" d="M26.1005 12.7516L25.2256 11.2392L23.6382 11.8767L22.3133 12.4141L21.1759 11.5392C20.6885 11.1643 20.176 10.8643 19.6385 10.6518L18.3137 10.1143L18.1137 8.70196L17.8762 7.00211H16.1263L15.8889 8.68946L15.6889 10.1018L14.364 10.6518C13.8515 10.8643 13.3391 11.1643 12.8016 11.5642L11.6767 12.4141L10.3643 11.8892L8.77696 11.2392L7.90204 12.7516L9.25192 13.8015L10.3643 14.6765L10.1893 16.0888C10.1518 16.4638 10.1268 16.7513 10.1268 17.0013C10.1268 17.2512 10.1518 17.5387 10.1893 17.9137L10.3643 19.3261L9.25192 20.201L7.90204 21.2509L8.77696 22.7633L10.3643 22.1258L11.6892 21.5884L12.8266 22.4633C13.3141 22.8383 13.8265 23.1382 14.364 23.3507L15.6889 23.8882L15.8889 25.3006L16.1263 27.0004H17.8637L18.1012 25.3131L18.3012 23.9007L19.626 23.3632C20.1385 23.1507 20.651 22.8508 21.1884 22.4508L22.3133 21.6009L23.6132 22.1258L25.2006 22.7633L26.0755 21.2509L24.7256 20.201L23.6132 19.3261L23.7882 17.9137C23.8382 17.5262 23.8507 17.2637 23.8507 17.0013C23.8507 16.7388 23.8257 16.4638 23.7882 16.0888L23.6132 14.6765L24.7256 13.8015L26.1005 12.7516V12.7516ZM17.0013 22.0008C14.239 22.0008 12.0017 19.7635 12.0017 17.0013C12.0017 14.239 14.239 12.0017 17.0013 12.0017C19.7635 12.0017 22.0008 14.239 22.0008 17.0013C22.0008 19.7635 19.7635 22.0008 17.0013 22.0008Z" fill="#00204E"/>
<path d="M26.288 18.2262C26.338 17.8262 26.3755 17.4262 26.3755 17.0013C26.3755 16.5763 26.338 16.1763 26.288 15.7764L28.9253 13.714C29.1627 13.5266 29.2252 13.1891 29.0752 12.9141L26.5755 8.58947C26.463 8.38949 26.2505 8.277 26.0255 8.277C25.9505 8.277 25.8755 8.2895 25.813 8.3145L22.7008 9.56439C22.0508 9.06443 21.3509 8.65197 20.5885 8.33949L20.1135 5.02727C20.076 4.7273 19.8135 4.50232 19.5011 4.50232H14.5015C14.189 4.50232 13.9265 4.7273 13.889 5.02727L13.4141 8.33949C12.6516 8.65197 11.9517 9.07693 11.3018 9.56439L8.18952 8.3145C8.11452 8.2895 8.03953 8.277 7.96454 8.277C7.75205 8.277 7.53957 8.38949 7.42708 8.58947L4.92729 12.9141C4.76481 13.1891 4.8398 13.5266 5.07728 13.714L7.71456 15.7764C7.66456 16.1763 7.62707 16.5888 7.62707 17.0013C7.62707 17.4137 7.66456 17.8262 7.71456 18.2262L5.07728 20.2885C4.8398 20.476 4.77731 20.8134 4.92729 21.0884L7.42708 25.413C7.53957 25.613 7.75206 25.7255 7.97704 25.7255C8.05203 25.7255 8.12702 25.713 8.18952 25.688L11.3018 24.4381C11.9517 24.9381 12.6516 25.3506 13.4141 25.663L13.889 28.9752C13.9265 29.2752 14.189 29.5002 14.5015 29.5002H19.5011C19.8135 29.5002 20.076 29.2752 20.1135 28.9752L20.5885 25.663C21.3509 25.3506 22.0508 24.9256 22.7008 24.4381L25.813 25.688C25.888 25.713 25.963 25.7255 26.038 25.7255C26.2505 25.7255 26.463 25.613 26.5755 25.413L29.0752 21.0884C29.2252 20.8134 29.1627 20.476 28.9253 20.2885L26.288 18.2262V18.2262ZM23.8132 16.0888C23.8632 16.4763 23.8757 16.7388 23.8757 17.0013C23.8757 17.2637 23.8507 17.5387 23.8132 17.9137L23.6382 19.3261L24.7506 20.201L26.1005 21.2509L25.2256 22.7633L23.6382 22.1258L22.3383 21.6009L21.2134 22.4508C20.676 22.8508 20.1635 23.1507 19.651 23.3632L18.3262 23.9007L18.1262 25.3131L17.8762 27.0004H16.1263L15.8889 25.3131L15.6889 23.9007L14.364 23.3632C13.8265 23.1382 13.3266 22.8508 12.8266 22.4758L11.6892 21.6009L10.3643 22.1383L8.77697 22.7758L7.90204 21.2634L9.25193 20.2135L10.3643 19.3386L10.1893 17.9262C10.1519 17.5387 10.1269 17.2512 10.1269 17.0013C10.1269 16.7513 10.1519 16.4638 10.1893 16.0888L10.3643 14.6765L9.25193 13.8015L7.90204 12.7516L8.77697 11.2392L10.3643 11.8767L11.6642 12.4016L12.7891 11.5517C13.3266 11.1518 13.839 10.8518 14.3515 10.6393L15.6764 10.1018L15.8764 8.68946L16.1263 7.00211H17.8637L18.1012 8.68946L18.3012 10.1018L19.626 10.6393C20.1635 10.8643 20.6635 11.1518 21.1634 11.5267L22.3008 12.4016L23.6257 11.8642L25.2131 11.2267L26.088 12.7391L24.7506 13.8015L23.6382 14.6765L23.8132 16.0888ZM17.0013 12.0017C14.239 12.0017 12.0017 14.239 12.0017 17.0013C12.0017 19.7635 14.239 22.0008 17.0013 22.0008C19.7635 22.0008 22.0008 19.7635 22.0008 17.0013C22.0008 14.239 19.7635 12.0017 17.0013 12.0017ZM17.0013 19.501C15.6264 19.501 14.5015 18.3761 14.5015 17.0013C14.5015 15.6264 15.6264 14.5015 17.0013 14.5015C18.3762 14.5015 19.5011 15.6264 19.5011 17.0013C19.5011 18.3761 18.3762 19.501 17.0013 19.501Z" fill="#00204E"/>
</g>
<defs>
<clipPath id="clip0_1_132">
<rect x="2.00256" y="2.00253" width="29.9975" height="29.9975" rx="0.5" fill="white"/>
</clipPath>
</defs>
</svg>
