<svg width="24" height="24" viewBox="0 0 24 24" fill="none" xmlns="http://www.w3.org/2000/svg">
<path d="M5.54999 22C4.82082 22 4.20103 21.7448 3.69061 21.2344C3.1802 20.724 2.92499 20.1042 2.92499 19.375V16.25H6.09999V2L7.59499 3.5L9.08999 2L10.585 3.5L12.08 2L13.575 3.5L15.075 2L16.575 3.5L18.075 2L19.575 3.5L21.075 2V19.375C21.075 20.1042 20.8198 20.724 20.3094 21.2344C19.7989 21.7448 19.1792 22 18.45 22H5.54999ZM18.45 20.5C18.7833 20.5 19.0542 20.3958 19.2625 20.1875C19.4708 19.9792 19.575 19.7083 19.575 19.375V4.5H7.59999V16.25H17.325V19.375C17.325 19.7083 17.4292 19.9792 17.6375 20.1875C17.8458 20.3958 18.1167 20.5 18.45 20.5ZM8.92499 8.45V6.95H14.925V8.45H8.92499ZM8.92499 11.8V10.3H14.925V11.8H8.92499ZM17.25 8.45C17.05 8.45 16.875 8.375 16.725 8.225C16.575 8.075 16.5 7.9 16.5 7.7C16.5 7.5 16.575 7.325 16.725 7.175C16.875 7.025 17.05 6.95 17.25 6.95C17.45 6.95 17.625 7.025 17.775 7.175C17.925 7.325 18 7.5 18 7.7C18 7.9 17.925 8.075 17.775 8.225C17.625 8.375 17.45 8.45 17.25 8.45ZM17.25 11.675C17.05 11.675 16.875 11.6 16.725 11.45C16.575 11.3 16.5 11.125 16.5 10.925C16.5 10.725 16.575 10.55 16.725 10.4C16.875 10.25 17.05 10.175 17.25 10.175C17.45 10.175 17.625 10.25 17.775 10.4C17.925 10.55 18 10.725 18 10.925C18 11.125 17.925 11.3 17.775 11.45C17.625 11.6 17.45 11.675 17.25 11.675ZM5.52499 20.5H15.825V17.75H4.42499V19.375C4.42499 19.7083 4.5304 19.9792 4.74124 20.1875C4.95207 20.3958 5.21332 20.5 5.52499 20.5Z" fill="#767676"/>
</svg>
